<svg width="176" height="59" viewBox="0 0 176 59" fill="none" xmlns="http://www.w3.org/2000/svg">
<path d="M15.5508 25.7256H4.19092V42H0.86084V2.89844H13.5635C17.735 2.89844 20.9935 3.90999 23.3389 5.93311C25.6842 7.95622 26.8569 10.785 26.8569 14.4194C26.8569 16.9259 26.1229 19.137 24.6548 21.0527C23.1867 22.9684 21.2173 24.2933 18.7466 25.0273L28.522 41.6509V42H25.0039L15.5508 25.7256ZM4.19092 22.9058H14.3154C17.0905 22.9058 19.3195 22.118 21.0024 20.5425C22.6854 18.967 23.5269 16.9259 23.5269 14.4194C23.5269 11.6623 22.6496 9.52279 20.895 8.00098C19.1405 6.47917 16.6787 5.71826 13.5098 5.71826H4.19092V22.9058ZM33.3291 27.0415C33.3291 24.2485 33.8662 21.7331 34.9404 19.4951C36.0326 17.2572 37.5633 15.5205 39.5327 14.2852C41.52 13.0319 43.7669 12.4053 46.2734 12.4053C50.1406 12.4053 53.2738 13.766 55.6729 16.4873C58.0719 19.1908 59.2715 22.7804 59.2715 27.2563V27.9277C59.2715 30.7386 58.7254 33.272 57.6333 35.5278C56.5591 37.7658 55.0373 39.4935 53.0679 40.7109C51.0985 41.9284 48.8516 42.5371 46.3271 42.5371C42.4779 42.5371 39.3447 41.1854 36.9277 38.4819C34.5286 35.7606 33.3291 32.1619 33.3291 27.686V27.0415ZM36.5518 27.9277C36.5518 31.401 37.4469 34.2567 39.2373 36.4946C41.0456 38.7147 43.4089 39.8247 46.3271 39.8247C49.2275 39.8247 51.5729 38.7147 53.3633 36.4946C55.1715 34.2567 56.0757 31.3115 56.0757 27.6592V27.0415C56.0757 24.8215 55.6639 22.7894 54.8403 20.9453C54.0168 19.1012 52.862 17.6779 51.376 16.6753C49.89 15.6548 48.1891 15.1445 46.2734 15.1445C43.4089 15.1445 41.0724 16.2725 39.2642 18.5283C37.4559 20.7663 36.5518 23.7025 36.5518 27.3369V27.9277ZM74.4717 24.7319L82.3135 12.9424H86.127L76.271 27.2026L86.5566 42H82.77L74.4985 29.7002L66.2271 42H62.4404L72.6992 27.2026L62.8433 12.9424H66.6299L74.4717 24.7319ZM101.22 24.7319L109.062 12.9424H112.875L103.019 27.2026L113.305 42H109.518L101.247 29.7002L92.9751 42H89.1885L99.4473 27.2026L89.5913 12.9424H93.3779L101.22 24.7319Z" fill="black"/>
<path d="M132.5 38L126 8.5L175 9C175.515 18.4933 174.963 23.7375 173 33L132.5 38Z" fill="#FBB038" stroke="#FBB038"/>
<path d="M139 16.5V25" stroke="white" stroke-width="2"/>
<g clip-path="url(#clip0)">
<path d="M145 16.5V25" stroke="white" stroke-width="2"/>
</g>
<g clip-path="url(#clip1)">
<path d="M152 16.5V25" stroke="white" stroke-width="2"/>
</g>
<g clip-path="url(#clip2)">
<path d="M159 16.5V25" stroke="white" stroke-width="2"/>
</g>
<g clip-path="url(#clip3)">
<path d="M165 16.5V25" stroke="white" stroke-width="2"/>
</g>
<path d="M115 0C114.448 0 114 0.447715 114 1C114 1.55228 114.448 2 115 2V0ZM169.961 42.9992C170.512 43.021 170.977 42.5913 170.999 42.0394C171.021 41.4876 170.591 41.0226 170.039 41.0008L169.961 42.9992ZM131.115 36.8223L130.143 37.0561L131.115 36.8223ZM135.776 40.6491L135.816 39.6498L135.776 40.6491ZM115 2C115.004 2 115.007 2 115.011 2C115.014 2 115.018 2 115.022 2C115.025 2 115.029 2 115.032 2C115.036 2 115.04 2 115.043 2C115.047 2 115.05 2 115.054 2C115.058 2 115.061 2 115.065 2C115.069 2 115.072 2 115.076 2C115.079 2 115.083 2 115.087 2C115.09 2 115.094 2 115.098 2C115.101 2 115.105 2 115.109 2C115.112 2 115.116 2 115.119 2C115.123 2 115.127 2 115.13 2C115.134 2 115.138 2 115.141 2C115.145 2 115.149 2 115.152 2C115.156 2 115.16 2 115.163 2C115.167 2 115.171 2 115.174 2C115.178 2 115.182 2 115.185 2C115.189 2 115.193 2 115.196 2C115.2 2 115.204 2 115.207 2C115.211 2 115.215 2 115.219 2C115.222 2 115.226 2 115.23 2C115.233 2 115.237 2 115.241 2C115.244 2 115.248 2 115.252 2C115.255 2 115.259 2 115.263 2C115.267 2 115.27 2 115.274 2C115.278 2 115.281 2 115.285 2C115.289 2 115.293 2 115.296 2C115.3 2 115.304 2 115.307 2C115.311 2 115.315 2 115.319 2C115.322 2 115.326 2 115.33 2C115.334 2 115.337 2 115.341 2C115.345 2 115.349 2 115.352 2C115.356 2 115.36 2 115.364 2C115.367 2 115.371 2 115.375 2C115.379 2 115.382 2 115.386 2C115.39 2 115.394 2 115.397 2C115.401 2 115.405 2 115.409 2C115.412 2 115.416 2 115.42 2C115.424 2 115.427 2 115.431 2C115.435 2 115.439 2 115.442 2C115.446 2 115.45 2 115.454 2C115.458 2 115.461 2 115.465 2C115.469 2 115.473 2 115.476 2C115.48 2 115.484 2 115.488 2C115.492 2 115.495 2 115.499 2C115.503 2 115.507 2 115.511 2C115.514 2 115.518 2 115.522 2C115.526 2 115.53 2 115.533 2C115.537 2 115.541 2 115.545 2C115.549 2 115.552 2 115.556 2C115.56 2 115.564 2 115.568 2C115.572 2 115.575 2 115.579 2C115.583 2 115.587 2 115.591 2C115.594 2 115.598 2 115.602 2C115.606 2 115.61 2 115.614 2C115.617 2 115.621 2 115.625 2C115.629 2 115.633 2 115.637 2C115.64 2 115.644 2 115.648 2C115.652 2 115.656 2 115.66 2C115.664 2 115.667 2 115.671 2C115.675 2 115.679 2 115.683 2C115.687 2 115.69 2 115.694 2C115.698 2 115.702 2 115.706 2C115.71 2 115.714 2 115.717 2C115.721 2 115.725 2 115.729 2C115.733 2 115.737 2 115.741 2C115.745 2 115.748 2 115.752 2C115.756 2 115.76 2 115.764 2C115.768 2 115.772 2 115.776 2C115.779 2 115.783 2 115.787 2C115.791 2 115.795 2 115.799 2C115.803 2 115.807 2 115.811 2C115.814 2 115.818 2 115.822 2C115.826 2 115.83 2 115.834 2C115.838 2 115.842 2 115.846 2C115.85 2 115.853 2 115.857 2C115.861 2 115.865 2 115.869 2C115.873 2 115.877 2 115.881 2C115.885 2 115.889 2 115.893 2C115.896 2 115.9 2 115.904 2C115.908 2 115.912 2 115.916 2C115.92 2 115.924 2 115.928 2C115.932 2 115.936 2 115.94 2C115.943 2 115.947 2 115.951 2C115.955 2 115.959 2 115.963 2C115.967 2 115.971 2 115.975 2C115.979 2 115.983 2 115.987 2C115.991 2 115.995 2 115.999 2C116.002 2 116.006 2 116.01 2C116.014 2 116.018 2 116.022 2C116.026 2 116.03 2 116.034 2C116.038 2 116.042 2 116.046 2C116.05 2 116.054 2 116.058 2C116.062 2 116.066 2 116.07 2C116.074 2 116.078 2 116.082 2C116.085 2 116.089 2 116.093 2C116.097 2 116.101 2 116.105 2C116.109 2 116.113 2 116.117 2C116.121 2 116.125 2 116.129 2C116.133 2 116.137 2 116.141 2C116.145 2 116.149 2 116.153 2C116.157 2 116.161 2 116.165 2C116.169 2 116.173 2 116.177 2C116.181 2 116.185 2 116.189 2C116.193 2 116.197 2 116.201 2C116.205 2 116.209 2 116.213 2C116.217 2 116.221 2 116.225 2C116.229 2 116.233 2 116.237 2C116.241 2 116.245 2 116.249 2C116.253 2 116.257 2 116.261 2C116.265 2 116.269 2 116.273 2C116.277 2 116.281 2 116.285 2C116.289 2 116.293 2 116.297 2C116.301 2 116.305 2 116.309 2C116.313 2 116.317 2 116.321 2C116.325 2 116.329 2 116.333 2C116.337 2 116.341 2 116.345 2C116.349 2 116.353 2 116.357 2C116.361 2 116.365 2 116.369 2C116.373 2 116.377 2 116.381 2C116.385 2 116.389 2 116.393 2C116.397 2 116.401 2 116.405 2C116.409 2 116.413 2 116.417 2C116.421 2 116.425 2 116.429 2C116.433 2 116.437 2 116.441 2C116.445 2 116.449 2 116.453 2C116.458 2 116.462 2 116.466 2C116.47 2 116.474 2 116.478 2C116.482 2 116.486 2 116.49 2C116.494 2 116.498 2 116.502 2C116.506 2 116.51 2 116.514 2C116.518 2 116.522 2 116.526 2C116.53 2 116.534 2 116.538 2C116.542 2 116.546 2 116.551 2C116.555 2 116.559 2 116.563 2C116.567 2 116.571 2 116.575 2C116.579 2 116.583 2 116.587 2C116.591 2 116.595 2 116.599 2C116.603 2 116.607 2 116.611 2C116.615 2 116.619 2 116.624 2C116.628 2 116.632 2 116.636 2C116.64 2 116.644 2 116.648 2C116.652 2 116.656 2 116.66 2C116.664 2 116.668 2 116.672 2C116.676 2 116.68 2 116.685 2C116.689 2 116.693 2 116.697 2C116.701 2 116.705 2 116.709 2C116.713 2 116.717 2 116.721 2C116.725 2 116.729 2 116.733 2C116.737 2 116.742 2 116.746 2C116.75 2 116.754 2 116.758 2C116.762 2 116.766 2 116.77 2C116.774 2 116.778 2 116.782 2C116.786 2 116.791 2 116.795 2C116.799 2 116.803 2 116.807 2C116.811 2 116.815 2 116.819 2C116.823 2 116.827 2 116.831 2C116.835 2 116.84 2 116.844 2C116.848 2 116.852 2 116.856 2C116.86 2 116.864 2 116.868 2C116.872 2 116.876 2 116.88 2C116.885 2 116.889 2 116.893 2C116.897 2 116.901 2 116.905 2C116.909 2 116.913 2 116.917 2C116.921 2 116.926 2 116.93 2C116.934 2 116.938 2 116.942 2C116.946 2 116.95 2 116.954 2C116.958 2 116.962 2 116.967 2C116.971 2 116.975 2 116.979 2C116.983 2 116.987 2 116.991 2C116.995 2 116.999 2 117.003 2C117.008 2 117.012 2 117.016 2C117.02 2 117.024 2 117.028 2C117.032 2 117.036 2 117.04 2C117.044 2 117.049 2 117.053 2C117.057 2 117.061 2 117.065 2C117.069 2 117.073 2 117.077 2C117.081 2 117.086 2 117.09 2C117.094 2 117.098 2 117.102 2C117.106 2 117.11 2 117.114 2C117.118 2 117.123 2 117.127 2C117.131 2 117.135 2 117.139 2C117.143 2 117.147 2 117.151 2C117.156 2 117.16 2 117.164 2C117.168 2 117.172 2 117.176 2C117.18 2 117.184 2 117.188 2C117.193 2 117.197 2 117.201 2C117.205 2 117.209 2 117.213 2C117.217 2 117.221 2 117.226 2C117.23 2 117.234 2 117.238 2C117.242 2 117.246 2 117.25 2C117.254 2 117.258 2 117.263 2C117.267 2 117.271 2 117.275 2C117.279 2 117.283 2 117.287 2C117.291 2 117.296 2 117.3 2C117.304 2 117.308 2 117.312 2C117.316 2 117.32 2 117.324 2C117.329 2 117.333 2 117.337 2C117.341 2 117.345 2 117.349 2C117.353 2 117.357 2 117.362 2C117.366 2 117.37 2 117.374 2C117.378 2 117.382 2 117.386 2C117.39 2 117.395 2 117.399 2C117.403 2 117.407 2 117.411 2C117.415 2 117.419 2 117.423 2C117.428 2 117.432 2 117.436 2C117.44 2 117.444 2 117.448 2C117.452 2 117.456 2 117.461 2C117.465 2 117.469 2 117.473 2C117.477 2 117.481 2 117.485 2C117.489 2 117.494 2 117.498 2C117.502 2 117.506 2 117.51 2C117.514 2 117.518 2 117.522 2C117.527 2 117.531 2 117.535 2C117.539 2 117.543 2 117.547 2C117.551 2 117.555 2 117.56 2C117.564 2 117.568 2 117.572 2C117.576 2 117.58 2 117.584 2C117.588 2 117.593 2 117.597 2C117.601 2 117.605 2 117.609 2C117.613 2 117.617 2 117.621 2C117.626 2 117.63 2 117.634 2C117.638 2 117.642 2 117.646 2C117.65 2 117.654 2 117.659 2C117.663 2 117.667 2 117.671 2C117.675 2 117.679 2 117.683 2C117.688 2 117.692 2 117.696 2C117.7 2 117.704 2 117.708 2C117.712 2 117.716 2 117.721 2C117.725 2 117.729 2 117.733 2C117.737 2 117.741 2 117.745 2C117.749 2 117.753 2 117.758 2C117.762 2 117.766 2 117.77 2C117.774 2 117.778 2 117.782 2C117.786 2 117.791 2 117.795 2C117.799 2 117.803 2 117.807 2C117.811 2 117.815 2 117.819 2C117.824 2 117.828 2 117.832 2C117.836 2 117.84 2 117.844 2C117.848 2 117.852 2 117.857 2C117.861 2 117.865 2 117.869 2C117.873 2 117.877 2 117.881 2C117.885 2 117.89 2 117.894 2C117.898 2 117.902 2 117.906 2C117.91 2 117.914 2 117.918 2C117.922 2 117.927 2 117.931 2C117.935 2 117.939 2 117.943 2C117.947 2 117.951 2 117.955 2C117.959 2 117.964 2 117.968 2C117.972 2 117.976 2 117.98 2C117.984 2 117.988 2 117.992 2C117.997 2 118.001 2 118.005 2C118.009 2 118.013 2 118.017 2C118.021 2 118.025 2 118.029 2C118.034 2 118.038 2 118.042 2C118.046 2 118.05 2 118.054 2C118.058 2 118.062 2 118.066 2C118.07 2 118.075 2 118.079 2C118.083 2 118.087 2 118.091 2C118.095 2 118.099 2 118.103 2C118.107 2 118.112 2 118.116 2C118.12 2 118.124 2 118.128 2C118.132 2 118.136 2 118.14 2C118.144 2 118.148 2 118.153 2C118.157 2 118.161 2 118.165 2C118.169 2 118.173 2 118.177 2C118.181 2 118.185 2 118.189 2C118.194 2 118.198 2 118.202 2C118.206 2 118.21 2 118.214 2C118.218 2 118.222 2 118.226 2C118.23 2 118.234 2 118.239 2C118.243 2 118.247 2 118.251 2C118.255 2 118.259 2 118.263 2C118.267 2 118.271 2 118.275 2C118.279 2 118.284 2 118.288 2C118.292 2 118.296 2 118.3 2C118.304 2 118.308 2 118.312 2C118.316 2 118.32 2 118.324 2C118.328 2 118.333 2 118.337 2C118.341 2 118.345 2 118.349 2C118.353 2 118.357 2 118.361 2C118.365 2 118.369 2 118.373 2C118.377 2 118.381 2 118.386 2C118.39 2 118.394 2 118.398 2C118.402 2 118.406 2 118.41 2C118.414 2 118.418 2 118.422 2C118.426 2 118.43 2 118.434 2C118.438 2 118.443 2 118.447 2C118.451 2 118.455 2 118.459 2C118.463 2 118.467 2 118.471 2C118.475 2 118.479 2 118.483 2C118.487 2 118.491 2 118.495 2C118.499 2 118.503 2 118.508 2C118.512 2 118.516 2 118.52 2C118.524 2 118.528 2 118.532 2C118.536 2 118.54 2 118.544 2C118.548 2 118.552 2 118.556 2C118.56 2 118.564 2 118.568 2C118.572 2 118.576 2 118.58 2C118.585 2 118.589 2 118.593 2C118.597 2 118.601 2 118.605 2C118.609 2 118.613 2 118.617 2C118.621 2 118.625 2 118.629 2C118.633 2 118.637 2 118.641 2C118.645 2 118.649 2 118.653 2C118.657 2 118.661 2 118.665 2C118.669 2 118.673 2 118.677 2C118.681 2 118.685 2 118.69 2C118.694 2 118.698 2 118.702 2C118.706 2 118.71 2 118.714 2C118.718 2 118.722 2 118.726 2C118.73 2 118.734 2 118.738 2C118.742 2 118.746 2 118.75 2C118.754 2 118.758 2 118.762 2C118.766 2 118.77 2 118.774 2C118.778 2 118.782 2 118.786 2C118.79 2 118.794 2 118.798 2C118.802 2 118.806 2 118.81 2C118.814 2 118.818 2 118.822 2C118.826 2 118.83 2 118.834 2C118.838 2 118.842 2 118.846 2C118.85 2 118.854 2 118.858 2C118.862 2 118.866 2 118.87 2C118.874 2 118.878 2 118.882 2C118.886 2 118.89 2 118.894 2C118.898 2 118.902 2 118.906 2C118.91 2 118.914 2 118.918 2C118.922 2 118.926 2 118.93 2C118.934 2 118.938 2 118.942 2C118.946 2 118.95 2 118.954 2C118.958 2 118.962 2 118.966 2C118.97 2 118.974 2 118.978 2C118.982 2 118.985 2 118.989 2C118.993 2 118.997 2 119.001 2C119.005 2 119.009 2 119.013 2C119.017 2 119.021 2 119.025 2C119.029 2 119.033 2 119.037 2C119.041 2 119.045 2 119.049 2C119.053 2 119.057 2 119.061 2C119.065 2 119.069 2 119.073 2C119.077 2 119.08 2 119.084 2C119.088 2 119.092 2 119.096 2C119.1 2 119.104 2 119.108 2C119.112 2 119.116 2 119.12 2C119.124 2 119.128 2 119.132 2C119.136 2 119.14 2 119.144 2C119.147 2 119.151 2 119.155 2C119.159 2 119.163 2 119.167 2C119.171 2 119.175 2 119.179 2C119.183 2 119.187 2 119.191 2C119.195 2 119.198 2 119.202 2C119.206 2 119.21 2 119.214 2C119.218 2 119.222 2 119.226 2C119.23 2 119.234 2 119.238 2C119.241 2 119.245 2 119.249 2C119.253 2 119.257 2 119.261 2C119.265 2 119.269 2 119.273 2C119.277 2 119.28 2 119.284 2C119.288 2 119.292 2 119.296 2C119.3 2 119.304 2 119.308 2C119.312 2 119.315 2 119.319 2C119.323 2 119.327 2 119.331 2C119.335 2 119.339 2 119.343 2C119.347 2 119.35 2 119.354 2C119.358 2 119.362 2 119.366 2C119.37 2 119.374 2 119.377 2C119.381 2 119.385 2 119.389 2C119.393 2 119.397 2 119.401 2C119.405 2 119.408 2 119.412 2C119.416 2 119.42 2 119.424 2C119.428 2 119.431 2 119.435 2C119.439 2 119.443 2 119.447 2C119.451 2 119.455 2 119.458 2C119.462 2 119.466 2 119.47 2C119.474 2 119.478 2 119.481 2C119.485 2 119.489 2 119.493 2C119.497 2 119.501 2 119.504 2C119.508 2 119.512 2 119.516 2C119.52 2 119.524 2 119.527 2C119.531 2 119.535 2 119.539 2C119.543 2 119.546 2 119.55 2C119.554 2 119.558 2 119.562 2C119.565 2 119.569 2 119.573 2C119.577 2 119.581 2 119.585 2C119.588 2 119.592 2 119.596 2C119.6 2 119.604 2 119.607 2C119.611 2 119.615 2 119.619 2C119.622 2 119.626 2 119.63 2C119.634 2 119.638 2 119.641 2C119.645 2 119.649 2 119.653 2C119.656 2 119.66 2 119.664 2C119.668 2 119.672 2 119.675 2C119.679 2 119.683 2 119.687 2C119.69 2 119.694 2 119.698 2C119.702 2 119.705 2 119.709 2C119.713 2 119.717 2 119.72 2C119.724 2 119.728 2 119.732 2C119.735 2 119.739 2 119.743 2C119.747 2 119.75 2 119.754 2C119.758 2 119.762 2 119.765 2C119.769 2 119.773 2 119.777 2C119.78 2 119.784 2 119.788 2C119.792 2 119.795 2 119.799 2C119.803 2 119.806 2 119.81 2C119.814 2 119.818 2 119.821 2C119.825 2 119.829 2 119.832 2C119.836 2 119.84 2 119.844 2C119.847 2 119.851 2 119.855 2C119.858 2 119.862 2 119.866 2C119.869 2 119.873 2 119.877 2C119.881 2 119.884 2 119.888 2C119.892 2 119.895 2 119.899 2C119.903 2 119.906 2 119.91 2C119.914 2 119.917 2 119.921 2C119.925 2 119.928 2 119.932 2C119.936 2 119.939 2 119.943 2C119.947 2 119.95 2 119.954 2C119.958 2 119.961 2 119.965 2C119.969 2 119.972 2 119.976 2C119.98 2 119.983 2 119.987 2C119.991 2 119.994 2 119.998 2C120.001 2 120.005 2 120.009 2C120.012 2 120.016 2 120.02 2C120.023 2 120.027 2 120.031 2C120.034 2 120.038 2 120.041 2C120.045 2 120.049 2 120.052 2C120.056 2 120.06 2 120.063 2C120.067 2 120.07 2 120.074 2C120.078 2 120.081 2 120.085 2C120.088 2 120.092 2 120.096 2C120.099 2 120.103 2 120.106 2C120.11 2 120.114 2 120.117 2C120.121 2 120.124 2 120.128 2C120.131 2 120.135 2 120.139 2C120.142 2 120.146 2 120.149 2C120.153 2 120.156 2 120.16 2C120.164 2 120.167 2 120.171 2C120.174 2 120.178 2 120.181 2C120.185 2 120.189 2 120.192 2C120.196 2 120.199 2 120.203 2C120.206 2 120.21 2 120.213 2C120.217 2 120.22 2 120.224 2C120.228 2 120.231 2 120.235 2C120.238 2 120.242 2 120.245 2C120.249 2 120.252 2 120.256 2C120.259 2 120.263 2 120.266 2C120.27 2 120.273 2 120.277 2C120.28 2 120.284 2 120.287 2C120.291 2 120.294 2 120.298 2C120.301 2 120.305 2 120.308 2C120.312 2 120.315 2 120.319 2C120.322 2 120.326 2 120.329 2C120.333 2 120.336 2 120.34 2C120.343 2 120.347 2 120.35 2C120.354 2 120.357 2 120.361 2C120.364 2 120.368 2 120.371 2C120.374 2 120.378 2 120.381 2C120.385 2 120.388 2 120.392 2C120.395 2 120.399 2 120.402 2C120.406 2 120.409 2 120.412 2C120.416 2 120.419 2 120.423 2C120.426 2 120.43 2 120.433 2C120.436 2 120.44 2 120.443 2C120.447 2 120.45 2 120.454 2C120.457 2 120.46 2 120.464 2C120.467 2 120.471 2 120.474 2C120.477 2 120.481 2 120.484 2C120.488 2 120.491 2 120.494 2C120.498 2 120.501 2 120.505 2C120.508 2 120.511 2 120.515 2C120.518 2 120.522 2 120.525 2C120.528 2 120.532 2 120.535 2C120.538 2 120.542 2 120.545 2C120.548 2 120.552 2 120.555 2C120.559 2 120.562 2 120.565 2C120.569 2 120.572 2 120.575 2C120.579 2 120.582 2 120.585 2C120.589 2 120.592 2 120.595 2C120.599 2 120.602 2 120.605 2C120.609 2 120.612 2 120.615 2C120.619 2 120.622 2 120.625 2C120.629 2 120.632 2 120.635 2C120.639 2 120.642 2 120.645 2C120.648 2 120.652 2 120.655 2C120.658 2 120.662 2 120.665 2C120.668 2 120.672 2 120.675 2C120.678 2 120.681 2 120.685 2C120.688 2 120.691 2 120.695 2C120.698 2 120.701 2 120.704 2C120.708 2 120.711 2 120.714 2C120.717 2 120.721 2 120.724 2C120.727 2 120.73 2 120.734 2C120.737 2 120.74 2 120.743 2C120.747 2 120.75 2 120.753 2C120.756 2 120.76 2 120.763 2C120.766 2 120.769 2 120.772 2C120.776 2 120.779 2 120.782 2C120.785 2 120.789 2 120.792 2C120.795 2 120.798 2 120.801 2C120.805 2 120.808 2 120.811 2C120.814 2 120.817 2 120.821 2C120.824 2 120.827 2 120.83 2C120.833 2 120.836 2 120.84 2C120.843 2 120.846 2 120.849 2C120.852 2 120.856 2 120.859 2C120.862 2 120.865 2 120.868 2C120.871 2 120.874 2 120.878 2C120.881 2 120.884 2 120.887 2C120.89 2 120.893 2 120.896 2C120.9 2 120.903 2 120.906 2C120.909 2 120.912 2 120.915 2C120.918 2 120.922 2 120.925 2V0C120.922 0 120.918 0 120.915 0C120.912 0 120.909 0 120.906 0C120.903 0 120.9 0 120.896 0C120.893 0 120.89 0 120.887 0C120.884 0 120.881 0 120.878 0C120.874 0 120.871 0 120.868 0C120.865 0 120.862 0 120.859 0C120.856 0 120.852 0 120.849 0C120.846 0 120.843 0 120.84 0C120.836 0 120.833 0 120.83 0C120.827 0 120.824 0 120.821 0C120.817 0 120.814 0 120.811 0C120.808 0 120.805 0 120.801 0C120.798 0 120.795 0 120.792 0C120.789 0 120.785 0 120.782 0C120.779 0 120.776 0 120.772 0C120.769 0 120.766 0 120.763 0C120.76 0 120.756 0 120.753 0C120.75 0 120.747 0 120.743 0C120.74 0 120.737 0 120.734 0C120.73 0 120.727 0 120.724 0C120.721 0 120.717 0 120.714 0C120.711 0 120.708 0 120.704 0C120.701 0 120.698 0 120.695 0C120.691 0 120.688 0 120.685 0C120.681 0 120.678 0 120.675 0C120.672 0 120.668 0 120.665 0C120.662 0 120.658 0 120.655 0C120.652 0 120.648 0 120.645 0C120.642 0 120.639 0 120.635 0C120.632 0 120.629 0 120.625 0C120.622 0 120.619 0 120.615 0C120.612 0 120.609 0 120.605 0C120.602 0 120.599 0 120.595 0C120.592 0 120.589 0 120.585 0C120.582 0 120.579 0 120.575 0C120.572 0 120.569 0 120.565 0C120.562 0 120.559 0 120.555 0C120.552 0 120.548 0 120.545 0C120.542 0 120.538 0 120.535 0C120.532 0 120.528 0 120.525 0C120.522 0 120.518 0 120.515 0C120.511 0 120.508 0 120.505 0C120.501 0 120.498 0 120.494 0C120.491 0 120.488 0 120.484 0C120.481 0 120.477 0 120.474 0C120.471 0 120.467 0 120.464 0C120.46 0 120.457 0 120.454 0C120.45 0 120.447 0 120.443 0C120.44 0 120.436 0 120.433 0C120.43 0 120.426 0 120.423 0C120.419 0 120.416 0 120.412 0C120.409 0 120.406 0 120.402 0C120.399 0 120.395 0 120.392 0C120.388 0 120.385 0 120.381 0C120.378 0 120.374 0 120.371 0C120.368 0 120.364 0 120.361 0C120.357 0 120.354 0 120.35 0C120.347 0 120.343 0 120.34 0C120.336 0 120.333 0 120.329 0C120.326 0 120.322 0 120.319 0C120.315 0 120.312 0 120.308 0C120.305 0 120.301 0 120.298 0C120.294 0 120.291 0 120.287 0C120.284 0 120.28 0 120.277 0C120.273 0 120.27 0 120.266 0C120.263 0 120.259 0 120.256 0C120.252 0 120.249 0 120.245 0C120.242 0 120.238 0 120.235 0C120.231 0 120.228 0 120.224 0C120.22 0 120.217 0 120.213 0C120.21 0 120.206 0 120.203 0C120.199 0 120.196 0 120.192 0C120.189 0 120.185 0 120.181 0C120.178 0 120.174 0 120.171 0C120.167 0 120.164 0 120.16 0C120.156 0 120.153 0 120.149 0C120.146 0 120.142 0 120.139 0C120.135 0 120.131 0 120.128 0C120.124 0 120.121 0 120.117 0C120.114 0 120.11 0 120.106 0C120.103 0 120.099 0 120.096 0C120.092 0 120.088 0 120.085 0C120.081 0 120.078 0 120.074 0C120.07 0 120.067 0 120.063 0C120.06 0 120.056 0 120.052 0C120.049 0 120.045 0 120.041 0C120.038 0 120.034 0 120.031 0C120.027 0 120.023 0 120.02 0C120.016 0 120.012 0 120.009 0C120.005 0 120.001 0 119.998 0C119.994 0 119.991 0 119.987 0C119.983 0 119.98 0 119.976 0C119.972 0 119.969 0 119.965 0C119.961 0 119.958 0 119.954 0C119.95 0 119.947 0 119.943 0C119.939 0 119.936 0 119.932 0C119.928 0 119.925 0 119.921 0C119.917 0 119.914 0 119.91 0C119.906 0 119.903 0 119.899 0C119.895 0 119.892 0 119.888 0C119.884 0 119.881 0 119.877 0C119.873 0 119.869 0 119.866 0C119.862 0 119.858 0 119.855 0C119.851 0 119.847 0 119.844 0C119.84 0 119.836 0 119.832 0C119.829 0 119.825 0 119.821 0C119.818 0 119.814 0 119.81 0C119.806 0 119.803 0 119.799 0C119.795 0 119.792 0 119.788 0C119.784 0 119.78 0 119.777 0C119.773 0 119.769 0 119.765 0C119.762 0 119.758 0 119.754 0C119.75 0 119.747 0 119.743 0C119.739 0 119.735 0 119.732 0C119.728 0 119.724 0 119.72 0C119.717 0 119.713 0 119.709 0C119.705 0 119.702 0 119.698 0C119.694 0 119.69 0 119.687 0C119.683 0 119.679 0 119.675 0C119.672 0 119.668 0 119.664 0C119.66 0 119.656 0 119.653 0C119.649 0 119.645 0 119.641 0C119.638 0 119.634 0 119.63 0C119.626 0 119.622 0 119.619 0C119.615 0 119.611 0 119.607 0C119.604 0 119.6 0 119.596 0C119.592 0 119.588 0 119.585 0C119.581 0 119.577 0 119.573 0C119.569 0 119.565 0 119.562 0C119.558 0 119.554 0 119.55 0C119.546 0 119.543 0 119.539 0C119.535 0 119.531 0 119.527 0C119.524 0 119.52 0 119.516 0C119.512 0 119.508 0 119.504 0C119.501 0 119.497 0 119.493 0C119.489 0 119.485 0 119.481 0C119.478 0 119.474 0 119.47 0C119.466 0 119.462 0 119.458 0C119.455 0 119.451 0 119.447 0C119.443 0 119.439 0 119.435 0C119.431 0 119.428 0 119.424 0C119.42 0 119.416 0 119.412 0C119.408 0 119.405 0 119.401 0C119.397 0 119.393 0 119.389 0C119.385 0 119.381 0 119.377 0C119.374 0 119.37 0 119.366 0C119.362 0 119.358 0 119.354 0C119.35 0 119.347 0 119.343 0C119.339 0 119.335 0 119.331 0C119.327 0 119.323 0 119.319 0C119.315 0 119.312 0 119.308 0C119.304 0 119.3 0 119.296 0C119.292 0 119.288 0 119.284 0C119.28 0 119.277 0 119.273 0C119.269 0 119.265 0 119.261 0C119.257 0 119.253 0 119.249 0C119.245 0 119.241 0 119.238 0C119.234 0 119.23 0 119.226 0C119.222 0 119.218 0 119.214 0C119.21 0 119.206 0 119.202 0C119.198 0 119.195 0 119.191 0C119.187 0 119.183 0 119.179 0C119.175 0 119.171 0 119.167 0C119.163 0 119.159 0 119.155 0C119.151 0 119.147 0 119.144 0C119.14 0 119.136 0 119.132 0C119.128 0 119.124 0 119.12 0C119.116 0 119.112 0 119.108 0C119.104 0 119.1 0 119.096 0C119.092 0 119.088 0 119.084 0C119.08 0 119.077 0 119.073 0C119.069 0 119.065 0 119.061 0C119.057 0 119.053 0 119.049 0C119.045 0 119.041 0 119.037 0C119.033 0 119.029 0 119.025 0C119.021 0 119.017 0 119.013 0C119.009 0 119.005 0 119.001 0C118.997 0 118.993 0 118.989 0C118.985 0 118.982 0 118.978 0C118.974 0 118.97 0 118.966 0C118.962 0 118.958 0 118.954 0C118.95 0 118.946 0 118.942 0C118.938 0 118.934 0 118.93 0C118.926 0 118.922 0 118.918 0C118.914 0 118.91 0 118.906 0C118.902 0 118.898 0 118.894 0C118.89 0 118.886 0 118.882 0C118.878 0 118.874 0 118.87 0C118.866 0 118.862 0 118.858 0C118.854 0 118.85 0 118.846 0C118.842 0 118.838 0 118.834 0C118.83 0 118.826 0 118.822 0C118.818 0 118.814 0 118.81 0C118.806 0 118.802 0 118.798 0C118.794 0 118.79 0 118.786 0C118.782 0 118.778 0 118.774 0C118.77 0 118.766 0 118.762 0C118.758 0 118.754 0 118.75 0C118.746 0 118.742 0 118.738 0C118.734 0 118.73 0 118.726 0C118.722 0 118.718 0 118.714 0C118.71 0 118.706 0 118.702 0C118.698 0 118.694 0 118.69 0C118.685 0 118.681 0 118.677 0C118.673 0 118.669 0 118.665 0C118.661 0 118.657 0 118.653 0C118.649 0 118.645 0 118.641 0C118.637 0 118.633 0 118.629 0C118.625 0 118.621 0 118.617 0C118.613 0 118.609 0 118.605 0C118.601 0 118.597 0 118.593 0C118.589 0 118.585 0 118.58 0C118.576 0 118.572 0 118.568 0C118.564 0 118.56 0 118.556 0C118.552 0 118.548 0 118.544 0C118.54 0 118.536 0 118.532 0C118.528 0 118.524 0 118.52 0C118.516 0 118.512 0 118.508 0C118.503 0 118.499 0 118.495 0C118.491 0 118.487 0 118.483 0C118.479 0 118.475 0 118.471 0C118.467 0 118.463 0 118.459 0C118.455 0 118.451 0 118.447 0C118.443 0 118.438 0 118.434 0C118.43 0 118.426 0 118.422 0C118.418 0 118.414 0 118.41 0C118.406 0 118.402 0 118.398 0C118.394 0 118.39 0 118.386 0C118.381 0 118.377 0 118.373 0C118.369 0 118.365 0 118.361 0C118.357 0 118.353 0 118.349 0C118.345 0 118.341 0 118.337 0C118.333 0 118.328 0 118.324 0C118.32 0 118.316 0 118.312 0C118.308 0 118.304 0 118.3 0C118.296 0 118.292 0 118.288 0C118.284 0 118.279 0 118.275 0C118.271 0 118.267 0 118.263 0C118.259 0 118.255 0 118.251 0C118.247 0 118.243 0 118.239 0C118.234 0 118.23 0 118.226 0C118.222 0 118.218 0 118.214 0C118.21 0 118.206 0 118.202 0C118.198 0 118.194 0 118.189 0C118.185 0 118.181 0 118.177 0C118.173 0 118.169 0 118.165 0C118.161 0 118.157 0 118.153 0C118.148 0 118.144 0 118.14 0C118.136 0 118.132 0 118.128 0C118.124 0 118.12 0 118.116 0C118.112 0 118.107 0 118.103 0C118.099 0 118.095 0 118.091 0C118.087 0 118.083 0 118.079 0C118.075 0 118.07 0 118.066 0C118.062 0 118.058 0 118.054 0C118.05 0 118.046 0 118.042 0C118.038 0 118.034 0 118.029 0C118.025 0 118.021 0 118.017 0C118.013 0 118.009 0 118.005 0C118.001 0 117.997 0 117.992 0C117.988 0 117.984 0 117.98 0C117.976 0 117.972 0 117.968 0C117.964 0 117.959 0 117.955 0C117.951 0 117.947 0 117.943 0C117.939 0 117.935 0 117.931 0C117.927 0 117.922 0 117.918 0C117.914 0 117.91 0 117.906 0C117.902 0 117.898 0 117.894 0C117.89 0 117.885 0 117.881 0C117.877 0 117.873 0 117.869 0C117.865 0 117.861 0 117.857 0C117.852 0 117.848 0 117.844 0C117.84 0 117.836 0 117.832 0C117.828 0 117.824 0 117.819 0C117.815 0 117.811 0 117.807 0C117.803 0 117.799 0 117.795 0C117.791 0 117.786 0 117.782 0C117.778 0 117.774 0 117.77 0C117.766 0 117.762 0 117.758 0C117.753 0 117.749 0 117.745 0C117.741 0 117.737 0 117.733 0C117.729 0 117.725 0 117.721 0C117.716 0 117.712 0 117.708 0C117.704 0 117.7 0 117.696 0C117.692 0 117.688 0 117.683 0C117.679 0 117.675 0 117.671 0C117.667 0 117.663 0 117.659 0C117.654 0 117.65 0 117.646 0C117.642 0 117.638 0 117.634 0C117.63 0 117.626 0 117.621 0C117.617 0 117.613 0 117.609 0C117.605 0 117.601 0 117.597 0C117.593 0 117.588 0 117.584 0C117.58 0 117.576 0 117.572 0C117.568 0 117.564 0 117.56 0C117.555 0 117.551 0 117.547 0C117.543 0 117.539 0 117.535 0C117.531 0 117.527 0 117.522 0C117.518 0 117.514 0 117.51 0C117.506 0 117.502 0 117.498 0C117.494 0 117.489 0 117.485 0C117.481 0 117.477 0 117.473 0C117.469 0 117.465 0 117.461 0C117.456 0 117.452 0 117.448 0C117.444 0 117.44 0 117.436 0C117.432 0 117.428 0 117.423 0C117.419 0 117.415 0 117.411 0C117.407 0 117.403 0 117.399 0C117.395 0 117.39 0 117.386 0C117.382 0 117.378 0 117.374 0C117.37 0 117.366 0 117.362 0C117.357 0 117.353 0 117.349 0C117.345 0 117.341 0 117.337 0C117.333 0 117.329 0 117.324 0C117.32 0 117.316 0 117.312 0C117.308 0 117.304 0 117.3 0C117.296 0 117.291 0 117.287 0C117.283 0 117.279 0 117.275 0C117.271 0 117.267 0 117.263 0C117.258 0 117.254 0 117.25 0C117.246 0 117.242 0 117.238 0C117.234 0 117.23 0 117.226 0C117.221 0 117.217 0 117.213 0C117.209 0 117.205 0 117.201 0C117.197 0 117.193 0 117.188 0C117.184 0 117.18 0 117.176 0C117.172 0 117.168 0 117.164 0C117.16 0 117.156 0 117.151 0C117.147 0 117.143 0 117.139 0C117.135 0 117.131 0 117.127 0C117.123 0 117.118 0 117.114 0C117.11 0 117.106 0 117.102 0C117.098 0 117.094 0 117.09 0C117.086 0 117.081 0 117.077 0C117.073 0 117.069 0 117.065 0C117.061 0 117.057 0 117.053 0C117.049 0 117.044 0 117.04 0C117.036 0 117.032 0 117.028 0C117.024 0 117.02 0 117.016 0C117.012 0 117.008 0 117.003 0C116.999 0 116.995 0 116.991 0C116.987 0 116.983 0 116.979 0C116.975 0 116.971 0 116.967 0C116.962 0 116.958 0 116.954 0C116.95 0 116.946 0 116.942 0C116.938 0 116.934 0 116.93 0C116.926 0 116.921 0 116.917 0C116.913 0 116.909 0 116.905 0C116.901 0 116.897 0 116.893 0C116.889 0 116.885 0 116.88 0C116.876 0 116.872 0 116.868 0C116.864 0 116.86 0 116.856 0C116.852 0 116.848 0 116.844 0C116.84 0 116.835 0 116.831 0C116.827 0 116.823 0 116.819 0C116.815 0 116.811 0 116.807 0C116.803 0 116.799 0 116.795 0C116.791 0 116.786 0 116.782 0C116.778 0 116.774 0 116.77 0C116.766 0 116.762 0 116.758 0C116.754 0 116.75 0 116.746 0C116.742 0 116.737 0 116.733 0C116.729 0 116.725 0 116.721 0C116.717 0 116.713 0 116.709 0C116.705 0 116.701 0 116.697 0C116.693 0 116.689 0 116.685 0C116.68 0 116.676 0 116.672 0C116.668 0 116.664 0 116.66 0C116.656 0 116.652 0 116.648 0C116.644 0 116.64 0 116.636 0C116.632 0 116.628 0 116.624 0C116.619 0 116.615 0 116.611 0C116.607 0 116.603 0 116.599 0C116.595 0 116.591 0 116.587 0C116.583 0 116.579 0 116.575 0C116.571 0 116.567 0 116.563 0C116.559 0 116.555 0 116.551 0C116.546 0 116.542 0 116.538 0C116.534 0 116.53 0 116.526 0C116.522 0 116.518 0 116.514 0C116.51 0 116.506 0 116.502 0C116.498 0 116.494 0 116.49 0C116.486 0 116.482 0 116.478 0C116.474 0 116.47 0 116.466 0C116.462 0 116.458 0 116.453 0C116.449 0 116.445 0 116.441 0C116.437 0 116.433 0 116.429 0C116.425 0 116.421 0 116.417 0C116.413 0 116.409 0 116.405 0C116.401 0 116.397 0 116.393 0C116.389 0 116.385 0 116.381 0C116.377 0 116.373 0 116.369 0C116.365 0 116.361 0 116.357 0C116.353 0 116.349 0 116.345 0C116.341 0 116.337 0 116.333 0C116.329 0 116.325 0 116.321 0C116.317 0 116.313 0 116.309 0C116.305 0 116.301 0 116.297 0C116.293 0 116.289 0 116.285 0C116.281 0 116.277 0 116.273 0C116.269 0 116.265 0 116.261 0C116.257 0 116.253 0 116.249 0C116.245 0 116.241 0 116.237 0C116.233 0 116.229 0 116.225 0C116.221 0 116.217 0 116.213 0C116.209 0 116.205 0 116.201 0C116.197 0 116.193 0 116.189 0C116.185 0 116.181 0 116.177 0C116.173 0 116.169 0 116.165 0C116.161 0 116.157 0 116.153 0C116.149 0 116.145 0 116.141 0C116.137 0 116.133 0 116.129 0C116.125 0 116.121 0 116.117 0C116.113 0 116.109 0 116.105 0C116.101 0 116.097 0 116.093 0C116.089 0 116.085 0 116.082 0C116.078 0 116.074 0 116.07 0C116.066 0 116.062 0 116.058 0C116.054 0 116.05 0 116.046 0C116.042 0 116.038 0 116.034 0C116.03 0 116.026 0 116.022 0C116.018 0 116.014 0 116.01 0C116.006 0 116.002 0 115.999 0C115.995 0 115.991 0 115.987 0C115.983 0 115.979 0 115.975 0C115.971 0 115.967 0 115.963 0C115.959 0 115.955 0 115.951 0C115.947 0 115.943 0 115.94 0C115.936 0 115.932 0 115.928 0C115.924 0 115.92 0 115.916 0C115.912 0 115.908 0 115.904 0C115.9 0 115.896 0 115.893 0C115.889 0 115.885 0 115.881 0C115.877 0 115.873 0 115.869 0C115.865 0 115.861 0 115.857 0C115.853 0 115.85 0 115.846 0C115.842 0 115.838 0 115.834 0C115.83 0 115.826 0 115.822 0C115.818 0 115.814 0 115.811 0C115.807 0 115.803 0 115.799 0C115.795 0 115.791 0 115.787 0C115.783 0 115.779 0 115.776 0C115.772 0 115.768 0 115.764 0C115.76 0 115.756 0 115.752 0C115.748 0 115.745 0 115.741 0C115.737 0 115.733 0 115.729 0C115.725 0 115.721 0 115.717 0C115.714 0 115.71 0 115.706 0C115.702 0 115.698 0 115.694 0C115.69 0 115.687 0 115.683 0C115.679 0 115.675 0 115.671 0C115.667 0 115.664 0 115.66 0C115.656 0 115.652 0 115.648 0C115.644 0 115.64 0 115.637 0C115.633 0 115.629 0 115.625 0C115.621 0 115.617 0 115.614 0C115.61 0 115.606 0 115.602 0C115.598 0 115.594 0 115.591 0C115.587 0 115.583 0 115.579 0C115.575 0 115.572 0 115.568 0C115.564 0 115.56 0 115.556 0C115.552 0 115.549 0 115.545 0C115.541 0 115.537 0 115.533 0C115.53 0 115.526 0 115.522 0C115.518 0 115.514 0 115.511 0C115.507 0 115.503 0 115.499 0C115.495 0 115.492 0 115.488 0C115.484 0 115.48 0 115.476 0C115.473 0 115.469 0 115.465 0C115.461 0 115.458 0 115.454 0C115.45 0 115.446 0 115.442 0C115.439 0 115.435 0 115.431 0C115.427 0 115.424 0 115.42 0C115.416 0 115.412 0 115.409 0C115.405 0 115.401 0 115.397 0C115.394 0 115.39 0 115.386 0C115.382 0 115.379 0 115.375 0C115.371 0 115.367 0 115.364 0C115.36 0 115.356 0 115.352 0C115.349 0 115.345 0 115.341 0C115.337 0 115.334 0 115.33 0C115.326 0 115.322 0 115.319 0C115.315 0 115.311 0 115.307 0C115.304 0 115.3 0 115.296 0C115.293 0 115.289 0 115.285 0C115.281 0 115.278 0 115.274 0C115.27 0 115.267 0 115.263 0C115.259 0 115.255 0 115.252 0C115.248 0 115.244 0 115.241 0C115.237 0 115.233 0 115.23 0C115.226 0 115.222 0 115.219 0C115.215 0 115.211 0 115.207 0C115.204 0 115.2 0 115.196 0C115.193 0 115.189 0 115.185 0C115.182 0 115.178 0 115.174 0C115.171 0 115.167 0 115.163 0C115.16 0 115.156 0 115.152 0C115.149 0 115.145 0 115.141 0C115.138 0 115.134 0 115.13 0C115.127 0 115.123 0 115.119 0C115.116 0 115.112 0 115.109 0C115.105 0 115.101 0 115.098 0C115.094 0 115.09 0 115.087 0C115.083 0 115.079 0 115.076 0C115.072 0 115.069 0 115.065 0C115.061 0 115.058 0 115.054 0C115.05 0 115.047 0 115.043 0C115.04 0 115.036 0 115.032 0C115.029 0 115.025 0 115.022 0C115.018 0 115.014 0 115.011 0C115.007 0 115.004 0 115 0V2ZM121.896 2.76616L130.143 37.0561L132.088 36.5884L123.841 2.29848L121.896 2.76616ZM135.737 41.6483C142.911 41.9315 158.792 42.5584 169.961 42.9992L170.039 41.0008C158.871 40.5599 142.99 39.933 135.816 39.6498L135.737 41.6483ZM130.143 37.0561C130.771 39.666 133.053 41.5423 135.737 41.6483L135.816 39.6498C134.028 39.5793 132.507 38.3297 132.088 36.5884L130.143 37.0561ZM120.925 2C121.386 2 121.788 2.31639 121.896 2.76616L123.841 2.29848C123.517 0.950678 122.312 0 120.925 0V2Z" fill="black"/>
<ellipse cx="137" cy="52" rx="7" ry="6.5" fill="#FBB038" fill-opacity="0.92"/>
<ellipse cx="164" cy="52" rx="7" ry="6.5" fill="#FBB038" fill-opacity="0.92"/>
<defs>
<clipPath id="clip0">
<rect width="2" height="9" fill="white" transform="translate(144 16.5)"/>
</clipPath>
<clipPath id="clip1">
<rect width="2" height="9" fill="white" transform="translate(151 16.5)"/>
</clipPath>
<clipPath id="clip2">
<rect width="2" height="9" fill="white" transform="translate(158 16.5)"/>
</clipPath>
<clipPath id="clip3">
<rect width="2" height="9" fill="white" transform="translate(164 16.5)"/>
</clipPath>
</defs>
</svg>
